<svg width="386" height="95" viewBox="0 0 386 95" fill="none" xmlns="http://www.w3.org/2000/svg">
<path d="M89.0478 76V24.16H104.28C107.394 24.16 109.912 24.736 111.832 25.888C113.794 27.04 115.224 28.7253 116.12 30.944C117.058 33.12 117.528 35.7653 117.528 38.88C117.528 42.2507 116.952 44.9813 115.8 47.072C114.648 49.12 113.026 50.6133 110.936 51.552C108.888 52.4907 106.456 52.96 103.64 52.96H98.5198V76H89.0478ZM98.5198 46.304H102.104C103.81 46.304 105.133 46.0693 106.072 45.6C107.053 45.088 107.714 44.2987 108.056 43.232C108.44 42.1227 108.632 40.6507 108.632 38.816C108.632 36.9387 108.482 35.424 108.184 34.272C107.928 33.0773 107.33 32.2027 106.392 31.648C105.496 31.0933 104.066 30.816 102.104 30.816H98.5198V46.304ZM122.948 76V24.16H135.172C139.396 24.16 142.681 24.736 145.028 25.888C147.417 27.04 149.102 28.8107 150.084 31.2C151.108 33.5893 151.62 36.6187 151.62 40.288V59.232C151.62 62.9867 151.108 66.1227 150.084 68.64C149.102 71.1147 147.438 72.9707 145.092 74.208C142.788 75.4027 139.609 76 135.556 76H122.948ZM132.42 69.408H135.3C137.476 69.408 139.033 69.024 139.972 68.256C140.91 67.488 141.486 66.3787 141.7 64.928C141.913 63.4347 142.02 61.6213 142.02 59.488V39.648C142.02 37.5573 141.87 35.872 141.572 34.592C141.273 33.312 140.654 32.3733 139.716 31.776C138.777 31.1787 137.262 30.88 135.172 30.88H132.42V69.408ZM159.619 76V24.16H172.163C175.235 24.16 177.581 24.736 179.203 25.888C180.867 26.9973 181.997 28.5333 182.595 30.496C183.235 32.416 183.555 34.5707 183.555 36.96C183.555 38.88 183.341 40.7147 182.915 42.464C182.531 44.2133 181.784 45.7067 180.675 46.944C179.608 48.1387 178.029 48.9067 175.939 49.248L184.259 76H180.803L172.739 49.888H163.075V76H159.619ZM163.075 47.2H172.035C174.253 47.2 175.939 46.7947 177.091 45.984C178.243 45.1307 179.032 43.936 179.459 42.4C179.928 40.864 180.163 39.0507 180.163 36.96C180.163 33.6747 179.608 31.1787 178.499 29.472C177.432 27.7653 175.256 26.912 171.971 26.912H163.075V47.2ZM199.696 76.576C197.733 76.576 196.048 76.192 194.64 75.424C193.232 74.6133 192.144 73.184 191.376 71.136C190.65 69.0453 190.288 66.1013 190.288 62.304V52.448C190.288 48.5653 190.672 45.6213 191.44 43.616C192.208 41.6107 193.296 40.2453 194.704 39.52C196.154 38.7947 197.84 38.432 199.76 38.432C202.064 38.432 203.877 38.9227 205.2 39.904C206.522 40.8853 207.461 42.464 208.016 44.64C208.57 46.7733 208.848 49.6107 208.848 53.152V56.672H193.68V62.56C193.68 65.504 193.872 67.808 194.256 69.472C194.682 71.136 195.344 72.3093 196.24 72.992C197.136 73.6747 198.288 74.016 199.696 74.016C200.592 74.016 201.488 73.8667 202.384 73.568C203.28 73.2693 204.026 72.5653 204.624 71.456C205.221 70.3467 205.52 68.6187 205.52 66.272V63.52H208.848V65.952C208.848 69.1093 208.186 71.6693 206.864 73.632C205.584 75.5947 203.194 76.576 199.696 76.576ZM193.68 54.624H205.52V51.744C205.52 49.5253 205.392 47.6267 205.136 46.048C204.922 44.4267 204.41 43.1893 203.6 42.336C202.789 41.44 201.509 40.992 199.76 40.992C198.394 40.992 197.242 41.2907 196.304 41.888C195.408 42.4427 194.746 43.5093 194.32 45.088C193.893 46.624 193.68 48.864 193.68 51.808V54.624ZM223.776 76.576C220.874 76.576 218.57 75.6373 216.864 73.76C215.157 71.84 214.176 69.2587 213.92 66.016L216.8 65.184C217.013 68.2987 217.717 70.56 218.912 71.968C220.149 73.3333 221.813 74.016 223.904 74.016C225.781 74.016 227.232 73.504 228.256 72.48C229.28 71.4133 229.792 69.92 229.792 68C229.792 66.6773 229.344 65.312 228.448 63.904C227.594 62.4533 226.229 60.9387 224.352 59.36L220.064 55.712C218.229 54.1333 216.885 52.64 216.032 51.232C215.178 49.7813 214.752 48.1387 214.752 46.304C214.752 44.5973 215.093 43.168 215.776 42.016C216.501 40.864 217.482 39.9893 218.72 39.392C220 38.752 221.472 38.432 223.136 38.432C225.909 38.432 227.978 39.3067 229.344 41.056C230.709 42.8053 231.434 45.152 231.52 48.096L229.024 48.864C228.981 46.944 228.704 45.408 228.192 44.256C227.722 43.104 227.061 42.272 226.208 41.76C225.397 41.248 224.437 40.992 223.328 40.992C221.706 40.992 220.384 41.4187 219.36 42.272C218.378 43.0827 217.888 44.2987 217.888 45.92C217.888 47.2853 218.144 48.48 218.656 49.504C219.21 50.4853 220.213 51.6373 221.664 52.96L226.08 56.864C227.189 57.8027 228.256 58.8053 229.28 59.872C230.304 60.9387 231.136 62.1333 231.776 63.456C232.458 64.736 232.8 66.272 232.8 68.064C232.8 69.856 232.416 71.392 231.648 72.672C230.922 73.9093 229.877 74.8693 228.512 75.552C227.189 76.2347 225.61 76.576 223.776 76.576ZM246.482 76.384C244.776 76.384 243.496 76.0427 242.642 75.36C241.789 74.6773 241.234 73.76 240.978 72.608C240.722 71.456 240.594 70.1547 240.594 68.704V41.248H235.73V39.008H240.594V27.168H243.986V39.008H250.258V41.248H243.986V68.256C243.986 70.2613 244.178 71.6693 244.562 72.48C244.946 73.2907 245.821 73.696 247.186 73.696C247.613 73.696 248.061 73.6747 248.53 73.632C249.042 73.5467 249.512 73.4613 249.938 73.376V76C249.426 76.128 248.85 76.2133 248.21 76.256C247.57 76.3413 246.994 76.384 246.482 76.384ZM261.525 76.576C260.031 76.576 258.73 76.2347 257.621 75.552C256.511 74.8693 255.637 73.9307 254.997 72.736C254.399 71.4987 254.101 70.0907 254.101 68.512C254.101 66.9333 254.293 65.568 254.677 64.416C255.103 63.2213 255.85 62.112 256.917 61.088C257.983 60.064 259.498 58.9973 261.461 57.888C263.466 56.736 266.047 55.4133 269.205 53.92V51.296C269.205 48.608 269.034 46.5173 268.693 45.024C268.394 43.5307 267.861 42.4853 267.093 41.888C266.367 41.2907 265.365 40.992 264.085 40.992C263.103 40.992 262.165 41.1627 261.269 41.504C260.373 41.8453 259.626 42.528 259.029 43.552C258.474 44.5333 258.197 46.0053 258.197 47.968V48.928H254.869C254.869 45.3867 255.573 42.7627 256.981 41.056C258.431 39.3067 260.842 38.432 264.213 38.432C267.327 38.432 269.503 39.4133 270.741 41.376C271.978 43.3387 272.597 46.5173 272.597 50.912V69.536C272.597 69.8773 272.597 70.5387 272.597 71.52C272.639 72.4587 272.661 73.376 272.661 74.272C272.703 75.168 272.746 75.744 272.789 76H269.845C269.759 75.104 269.653 74.1653 269.525 73.184C269.397 72.2027 269.311 71.4987 269.269 71.072C268.714 72.608 267.754 73.9093 266.389 74.976C265.023 76.0427 263.402 76.576 261.525 76.576ZM262.357 73.76C263.423 73.76 264.383 73.5253 265.237 73.056C266.09 72.544 266.858 71.904 267.541 71.136C268.223 70.3253 268.778 69.472 269.205 68.576V56.416C266.943 57.6107 265.045 58.6347 263.509 59.488C262.015 60.3413 260.821 61.152 259.925 61.92C259.071 62.688 258.453 63.5627 258.069 64.544C257.685 65.4827 257.493 66.6347 257.493 68C257.493 70.2187 258.005 71.7333 259.029 72.544C260.053 73.3547 261.162 73.76 262.357 73.76ZM285.221 76.576C284.111 76.576 283.109 76.32 282.213 75.808C281.359 75.2533 280.677 74.4 280.165 73.248C279.653 72.0533 279.397 70.4747 279.397 68.512V39.008H282.789V68.128C282.789 70.3893 283.13 71.9253 283.813 72.736C284.538 73.5467 285.498 73.952 286.693 73.952C288.015 73.952 289.338 73.5467 290.661 72.736C291.983 71.8827 293.199 70.7947 294.309 69.472V39.008H297.637V76H294.309V71.648C293.114 73.1413 291.727 74.336 290.149 75.232C288.613 76.128 286.97 76.576 285.221 76.576ZM305.565 76V39.008H308.957V44C310.066 42.1653 311.431 40.8213 313.053 39.968C314.717 39.072 316.274 38.624 317.725 38.624C317.81 38.624 317.895 38.624 317.981 38.624C318.109 38.624 318.237 38.6453 318.365 38.688V42.208C318.194 42.1227 317.959 42.08 317.661 42.08C317.405 42.0373 317.17 42.016 316.957 42.016C315.25 42.016 313.714 42.4213 312.349 43.232C311.026 44.0427 309.895 45.216 308.957 46.752V76H305.565ZM329.35 76.576C327.856 76.576 326.555 76.2347 325.446 75.552C324.336 74.8693 323.462 73.9307 322.822 72.736C322.224 71.4987 321.926 70.0907 321.926 68.512C321.926 66.9333 322.118 65.568 322.502 64.416C322.928 63.2213 323.675 62.112 324.742 61.088C325.808 60.064 327.323 58.9973 329.286 57.888C331.291 56.736 333.872 55.4133 337.03 53.92V51.296C337.03 48.608 336.859 46.5173 336.518 45.024C336.219 43.5307 335.686 42.4853 334.918 41.888C334.192 41.2907 333.19 40.992 331.91 40.992C330.928 40.992 329.99 41.1627 329.094 41.504C328.198 41.8453 327.451 42.528 326.854 43.552C326.299 44.5333 326.022 46.0053 326.022 47.968V48.928H322.694C322.694 45.3867 323.398 42.7627 324.806 41.056C326.256 39.3067 328.667 38.432 332.038 38.432C335.152 38.432 337.328 39.4133 338.566 41.376C339.803 43.3387 340.422 46.5173 340.422 50.912V69.536C340.422 69.8773 340.422 70.5387 340.422 71.52C340.464 72.4587 340.486 73.376 340.486 74.272C340.528 75.168 340.571 75.744 340.614 76H337.67C337.584 75.104 337.478 74.1653 337.35 73.184C337.222 72.2027 337.136 71.4987 337.094 71.072C336.539 72.608 335.579 73.9093 334.214 74.976C332.848 76.0427 331.227 76.576 329.35 76.576ZM330.182 73.76C331.248 73.76 332.208 73.5253 333.062 73.056C333.915 72.544 334.683 71.904 335.366 71.136C336.048 70.3253 336.603 69.472 337.03 68.576V56.416C334.768 57.6107 332.87 58.6347 331.334 59.488C329.84 60.3413 328.646 61.152 327.75 61.92C326.896 62.688 326.278 63.5627 325.894 64.544C325.51 65.4827 325.318 66.6347 325.318 68C325.318 70.2187 325.83 71.7333 326.854 72.544C327.878 73.3547 328.987 73.76 330.182 73.76ZM347.542 76V39.008H350.934V42.976C352.086 41.6107 353.408 40.5227 354.902 39.712C356.395 38.8587 357.995 38.432 359.702 38.432C360.811 38.432 361.792 38.7093 362.646 39.264C363.542 39.776 364.246 40.6293 364.758 41.824C365.27 42.976 365.526 44.5333 365.526 46.496V76H362.134V46.88C362.134 44.6187 361.771 43.0827 361.046 42.272C360.363 41.4613 359.424 41.056 358.23 41.056C356.992 41.056 355.734 41.44 354.454 42.208C353.216 42.9333 352.043 43.9147 350.934 45.152V76H347.542ZM380.82 76.384C379.113 76.384 377.833 76.0427 376.98 75.36C376.126 74.6773 375.572 73.76 375.316 72.608C375.06 71.456 374.932 70.1547 374.932 68.704V41.248H370.068V39.008H374.932V27.168H378.324V39.008H384.596V41.248H378.324V68.256C378.324 70.2613 378.516 71.6693 378.9 72.48C379.284 73.2907 380.158 73.696 381.524 73.696C381.95 73.696 382.398 73.6747 382.868 73.632C383.38 73.5467 383.849 73.4613 384.276 73.376V76C383.764 76.128 383.188 76.2133 382.548 76.256C381.908 76.3413 381.332 76.384 380.82 76.384Z" fill="#EF233C"/>
<path d="M14.4826 16.1507C13.9289 16.3107 13.1537 17.1351 12.9938 17.7011C12.9199 17.9595 12.8584 18.7839 12.8584 19.5345V20.9126L10.4959 20.9619C8.36719 21.0111 8.01035 21.0603 7.01367 21.3556C3.86367 22.3031 1.32891 24.8132 0.344531 28.0125L0 29.1199V49.9763V70.8328L0.344531 71.9402C1.32891 75.1271 3.82676 77.625 7.01367 78.6093L8.12109 78.9539H18.777H29.4205L29.925 78.6216C30.6879 78.1171 31.0078 77.5142 31.0078 76.5544C31.0078 75.5947 30.6879 74.9917 29.925 74.4873L29.4205 74.155L19.0846 74.0935L8.73633 74.032L8.02266 73.749C6.65684 73.1953 5.62324 72.1125 5.14336 70.722C4.93418 70.1314 4.92188 69.024 4.92188 49.9763C4.92188 30.9287 4.93418 29.8212 5.14336 29.2306C5.62324 27.8402 6.66914 26.7451 8.02266 26.216C8.63789 25.9822 9.03164 25.933 10.7789 25.8837L12.8338 25.8345L12.8707 27.4833C12.9199 28.9476 12.9445 29.1691 13.2152 29.5874C13.3752 29.8458 13.732 30.2027 14.0027 30.3873C14.4211 30.6703 14.6426 30.7195 15.3193 30.7195C15.9961 30.7195 16.2176 30.6703 16.6359 30.3873C16.9066 30.2027 17.2635 29.8458 17.4234 29.5874C17.6941 29.1691 17.7188 28.9476 17.7557 27.4833L17.8049 25.8591H23.3174H28.8299L28.8791 27.4957C28.916 29.0337 28.9406 29.1691 29.2482 29.6367C29.7527 30.4119 30.3557 30.7195 31.3277 30.7195C31.9922 30.7195 32.2137 30.658 32.632 30.3873C32.9027 30.2027 33.2596 29.8458 33.4195 29.5874C33.6902 29.1691 33.7148 28.9476 33.7518 27.4833L33.801 25.8591H39.375H44.949L44.9982 27.4957C45.0352 29.0337 45.0598 29.1691 45.3674 29.6367C45.8719 30.4119 46.4748 30.7195 47.4469 30.7195C48.1113 30.7195 48.3328 30.658 48.7512 30.3873C49.0219 30.2027 49.3787 29.8458 49.5387 29.5874C49.8094 29.1691 49.834 28.9476 49.8832 27.4833L49.9201 25.8345L52.0365 25.8837C53.8207 25.933 54.2391 25.9699 54.8051 26.2037C56.1709 26.7451 57.1307 27.6925 57.6721 29.0214L57.9551 29.7351L58.0166 37.6716L58.0781 45.6082L58.3734 46.0757C58.5334 46.3341 58.8902 46.691 59.1609 46.8755C59.5793 47.1462 59.8008 47.2078 60.4652 47.2078C61.4373 47.2078 62.0402 46.9001 62.5447 46.125L62.877 45.6205V37.3763V29.1199L62.5324 28.0125C61.548 24.8255 59.0133 22.3031 55.8633 21.3556C54.8666 21.0603 54.5098 21.0111 52.3318 20.9619L49.9201 20.9126L49.8709 19.2884C49.834 17.7626 49.8094 17.6273 49.5018 17.1597C48.9973 16.3968 48.3943 16.0769 47.4346 16.0769C46.4748 16.0769 45.8719 16.3968 45.3674 17.1597C45.0598 17.6273 45.0352 17.7626 44.9982 19.3007L44.949 20.9373H39.375H33.801L33.7518 19.3007C33.7148 17.8488 33.6902 17.6273 33.4195 17.2089C33.2596 16.9505 32.9027 16.5937 32.632 16.4091C32.2137 16.1384 31.9922 16.0769 31.3277 16.0769C30.3557 16.0769 29.7527 16.3845 29.2482 17.1597C28.9406 17.6273 28.916 17.7626 28.8791 19.3007L28.8299 20.9373H23.3174H17.8049L17.7557 19.3007C17.7188 17.7626 17.6941 17.6273 17.3865 17.1597C17.202 16.889 16.8574 16.5445 16.6236 16.3968C16.1191 16.0769 15.0855 15.9662 14.4826 16.1507Z" fill="black"/>
<path d="M14.4826 39.5296C13.892 39.7019 13.1414 40.514 12.9691 41.1416C12.6861 42.2367 13.1168 43.381 14.052 43.9593C14.7533 44.4023 15.9469 44.3777 16.6359 43.9224C17.3988 43.4179 17.7188 42.815 17.7188 41.8552C17.7188 40.9078 17.3988 40.2925 16.6729 39.8126C16.1438 39.4558 15.1348 39.3328 14.4826 39.5296Z" fill="black"/>
<path d="M25.1877 39.5296C24.5971 39.7019 23.8465 40.514 23.6742 41.1416C23.3912 42.2367 23.8219 43.381 24.757 43.9593C25.4584 44.4023 26.652 44.3777 27.341 43.9224C28.1039 43.4179 28.4238 42.815 28.4238 41.8552C28.4238 40.9078 28.1039 40.2925 27.3779 39.8126C26.8488 39.4558 25.8399 39.3328 25.1877 39.5296Z" fill="black"/>
<path d="M35.8928 39.5296C35.3022 39.7019 34.5516 40.514 34.3793 41.1416C34.0963 42.2367 34.527 43.381 35.4621 43.9593C36.1635 44.4023 37.357 44.3777 38.0461 43.9224C38.809 43.4179 39.1289 42.815 39.1289 41.8552C39.1289 40.9078 38.809 40.2925 38.083 39.8126C37.5539 39.4558 36.5449 39.3328 35.8928 39.5296Z" fill="black"/>
<path d="M46.5979 39.5296C46.0072 39.7019 45.2566 40.514 45.0844 41.1416C44.8014 42.2367 45.232 43.381 46.1672 43.9593C46.8686 44.4023 48.0621 44.3777 48.7512 43.9224C49.5141 43.4179 49.834 42.815 49.834 41.8552C49.834 40.9078 49.5141 40.2925 48.7881 39.8126C48.259 39.4558 47.25 39.3328 46.5979 39.5296Z" fill="black"/>
<path d="M45.8965 49.4226C42.648 49.9271 39.6826 51.4406 37.4432 53.7416C36.2619 54.9351 35.4498 56.1041 34.6869 57.6667C32.6689 61.8134 32.6689 66.44 34.6869 70.5867C36.2004 73.6751 38.5137 75.9884 41.5775 77.4773C45.7488 79.5076 50.3508 79.5076 54.5221 77.4773C57.5859 75.9884 59.8992 73.6751 61.4127 70.5867C63.4307 66.44 63.4307 61.8134 61.4127 57.6667C59.8992 54.5783 57.5859 52.265 54.5221 50.7761C51.7904 49.4472 48.7512 48.9673 45.8965 49.4226ZM49.7971 54.3322C54.5959 55.2796 58.0166 59.3402 58.0166 64.1267C58.0166 68.9132 54.5959 72.9738 49.7971 73.9212C46.3887 74.5857 42.5988 73.1953 40.384 70.4636C37.3324 66.6984 37.3324 61.555 40.384 57.7898C42.5988 55.0705 46.3887 53.6677 49.7971 54.3322Z" fill="black"/>
<path d="M47.2131 56.7562C46.6348 56.9285 45.8719 57.7406 45.7119 58.3435C45.6258 58.6757 45.5889 59.9308 45.6135 61.8996L45.6504 64.9511L45.9826 65.4433C46.1672 65.714 46.524 66.0708 46.7824 66.2308C47.2377 66.5138 47.3238 66.5261 49.834 66.5261C52.3441 66.5261 52.4303 66.5138 52.8855 66.2308C53.1439 66.0708 53.5008 65.714 53.6853 65.4433C54.1406 64.7542 54.1652 63.5607 53.7223 62.8593C53.2424 62.0841 52.6271 61.7519 51.4951 61.6904L50.5353 61.6412L50.4861 59.9554C50.4492 58.4542 50.4246 58.2328 50.1539 57.8144C49.5756 56.8792 48.2959 56.424 47.2131 56.7562Z" fill="black"/>
<path d="M14.4826 50.2347C13.892 50.407 13.1414 51.2191 12.9691 51.8466C12.6861 52.9417 13.1168 54.0861 14.052 54.6644C14.7533 55.1074 15.9469 55.0828 16.6359 54.6275C17.3988 54.123 17.7188 53.5201 17.7188 52.5603C17.7188 51.6128 17.3988 50.9976 16.6729 50.5177C16.1438 50.1609 15.1348 50.0378 14.4826 50.2347Z" fill="black"/>
<path d="M25.1877 50.2347C24.5971 50.407 23.8465 51.2191 23.6742 51.8466C23.3912 52.9417 23.8219 54.0861 24.757 54.6644C25.4584 55.1074 26.652 55.0828 27.341 54.6275C28.1039 54.123 28.4238 53.5201 28.4238 52.5603C28.4238 51.6128 28.1039 50.9976 27.3779 50.5177C26.8488 50.1609 25.8399 50.0378 25.1877 50.2347Z" fill="black"/>
<path d="M14.4826 60.9398C13.892 61.1121 13.1414 61.9242 12.9691 62.5517C12.6861 63.6468 13.1168 64.7912 14.052 65.3695C14.7533 65.8125 15.9469 65.7878 16.6359 65.3326C17.3988 64.8281 17.7188 64.2251 17.7188 63.2654C17.7188 62.3179 17.3988 61.7027 16.6729 61.2228C16.1438 60.866 15.1348 60.7429 14.4826 60.9398Z" fill="black"/>
<path d="M25.1877 60.9398C24.5971 61.1121 23.8465 61.9242 23.6742 62.5517C23.3912 63.6468 23.8219 64.7912 24.757 65.3695C25.4584 65.8125 26.652 65.7878 27.341 65.3326C28.1039 64.8281 28.4238 64.2251 28.4238 63.2654C28.4238 62.3179 28.1039 61.7027 27.3779 61.2228C26.8488 60.866 25.8399 60.7429 25.1877 60.9398Z" fill="black"/>
</svg>
